<svg xmlns="http://www.w3.org/2000/svg" viewBox="0 0 500 500"><g id="freepik--Floor--inject-262"><ellipse id="freepik--floor--inject-262" cx="250" cy="351.98" rx="246.07" ry="142.07" style="fill:#f5f5f5"></ellipse></g><g id="freepik--Shadows--inject-262"><polygon id="freepik--Shadow--inject-262" points="356.25 329.93 403.01 302.93 342.25 267.85 295.49 294.85 248.72 267.85 94.44 356.93 47.68 383.92 108.44 419 155.2 392.01 295.49 473 356.25 437.92 309.49 410.92 403.01 356.93 356.25 329.93" style="fill:#e0e0e0"></polygon><ellipse id="freepik--shadow--inject-262" cx="73.3" cy="329.3" rx="56.7" ry="32.74" style="fill:#e0e0e0"></ellipse><ellipse id="freepik--shadow--inject-262" cx="426.7" cy="329.3" rx="56.7" ry="32.74" style="fill:#e0e0e0"></ellipse></g><g id="freepik--Timer--inject-262"><g id="freepik--timer--inject-262"><path d="M172.1,221.5H327.9a7.54,7.54,0,0,1,7.54,7.54v4.14a0,0,0,0,1,0,0H164.56a0,0,0,0,1,0,0V229A7.54,7.54,0,0,1,172.1,221.5Z" style="fill:#37474f"></path><path d="M295.16,138.57a13.27,13.27,0,0,1,6.68,1.79l21.08,12.17a8.12,8.12,0,0,0-3.84-1H180.91a8.16,8.16,0,0,0-3.78.93l21-12.14a13.3,13.3,0,0,1,6.68-1.79Z" style="fill:#FF725E"></path><path d="M295.16,138.57a13.27,13.27,0,0,1,6.68,1.79l21.08,12.17a8.12,8.12,0,0,0-3.84-1H180.91a8.16,8.16,0,0,0-3.78.93l21-12.14a13.3,13.3,0,0,1,6.68-1.79Z" style="fill:#fff;opacity:0.2"></path><path d="M172.82,221.92H327.18V159.66a8.1,8.1,0,0,0-8.1-8.1H180.91a8.1,8.1,0,0,0-8.09,8.1Z" style="fill:#FF725E"></path><path d="M172.82,221.92H327.18V159.66a8.1,8.1,0,0,0-8.1-8.1H180.91a8.1,8.1,0,0,0-8.09,8.1Z" style="opacity:0.2"></path><circle cx="286.56" cy="187.41" r="29.59" transform="translate(-48.59 257.52) rotate(-45)" style="fill:#fafafa"></circle><path d="M286.56,161.4a.78.78,0,0,0-.75.81v3.33a.75.75,0,1,0,1.49,0V162.2A.77.77,0,0,0,286.56,161.4Z" style="fill:#FF725E"></path><path d="M312.57,187.41a.79.79,0,0,1-.81.75h-3.33a.78.78,0,0,1-.81-.75.8.8,0,0,1,.81-.75h3.34A.77.77,0,0,1,312.57,187.41Z" style="fill:#FF725E"></path><path d="M260.55,187.41a.78.78,0,0,1,.81-.75h3.33a.77.77,0,0,1,.8.75.78.78,0,0,1-.81.75h-3.33A.77.77,0,0,1,260.55,187.41Z" style="fill:#FF725E"></path><path d="M286.56,213.42a.77.77,0,0,0,.74-.81v-3.33a.77.77,0,0,0-.75-.8.78.78,0,0,0-.75.8v3.34A.77.77,0,0,0,286.56,213.42Z" style="fill:#FF725E"></path><path d="M297.5,169.65a.2.2,0,0,1-.13,0,.25.25,0,0,1-.09-.34l2.47-4.28a.25.25,0,0,1,.34-.09.26.26,0,0,1,.1.34l-2.48,4.28A.24.24,0,0,1,297.5,169.65Z" style="fill:#455a64"></path><path d="M305,177.53a.26.26,0,0,1-.22-.13.25.25,0,0,1,.09-.34l4.28-2.47a.25.25,0,0,1,.25.43l-4.28,2.48A.27.27,0,0,1,305,177.53Z" style="fill:#455a64"></path><path d="M275.62,169.65a.26.26,0,0,1-.22-.13l-2.47-4.28a.25.25,0,1,1,.43-.25l2.48,4.28a.26.26,0,0,1-.1.34A.19.19,0,0,1,275.62,169.65Z" style="fill:#455a64"></path><path d="M268.08,177.53a.31.31,0,0,1-.13,0L263.67,175a.25.25,0,0,1,.25-.43l4.28,2.47a.26.26,0,0,1,.1.34A.27.27,0,0,1,268.08,177.53Z" style="fill:#455a64"></path><path d="M300,210a.25.25,0,0,1-.22-.12l-2.47-4.29a.25.25,0,1,1,.43-.25l2.48,4.29a.26.26,0,0,1-.1.34A.27.27,0,0,1,300,210Z" style="fill:#455a64"></path><path d="M309.32,200.26a.28.28,0,0,1-.13,0l-4.28-2.48a.25.25,0,0,1,.25-.43l4.28,2.47a.25.25,0,0,1-.12.47Z" style="fill:#455a64"></path><path d="M273.15,210a.28.28,0,0,1-.13,0,.25.25,0,0,1-.09-.34l2.47-4.29a.25.25,0,0,1,.34-.09.26.26,0,0,1,.1.34l-2.48,4.29A.24.24,0,0,1,273.15,210Z" style="fill:#455a64"></path><path d="M263.8,200.26a.26.26,0,0,1-.22-.13.25.25,0,0,1,.09-.34l4.28-2.47a.25.25,0,1,1,.25.43l-4.28,2.48Z" style="fill:#455a64"></path><path d="M288.29,186.32a39.85,39.85,0,0,1,5.89-2.42l5.41-4.14-6.28,2.62a38.55,38.55,0,0,1-5,3.94Z" style="fill:#FF725E"></path><path d="M286.56,187.41c0-5.06,1.89-4.82,1.89-4.82L286.56,168l-1.89,14.61s1.89-.24,1.89,4.82Z" style="fill:#455a64"></path><path d="M289.36,187.41a2.8,2.8,0,1,1-2.8-2.8A2.81,2.81,0,0,1,289.36,187.41Z" style="fill:#455a64"></path><circle cx="286.56" cy="187.41" r="1.49" style="fill:#263238"></circle><path d="M282.61,199.29a.17.17,0,0,1,.17.17v.47a.17.17,0,0,1-.17.18h-1.19v3.6a.17.17,0,0,1-.05.13.18.18,0,0,1-.12,0h-.54a.17.17,0,0,1-.17-.18v-3.6h-1.19a.17.17,0,0,1-.12-.05.18.18,0,0,1-.06-.13v-.47a.14.14,0,0,1,.06-.12.13.13,0,0,1,.12-.05Z" style="fill:#e0e0e0"></path><path d="M283.62,203.89a.17.17,0,0,1-.12,0,.18.18,0,0,1-.06-.13v-4.25a.14.14,0,0,1,.06-.12.13.13,0,0,1,.12-.05h.53a.17.17,0,0,1,.18.17v4.25a.17.17,0,0,1-.18.18Z" style="fill:#e0e0e0"></path><path d="M287.51,201.63l1.25-2.17.09-.1a.24.24,0,0,1,.2-.07h.44a.17.17,0,0,1,.18.17v4.25a.17.17,0,0,1-.18.18H289a.17.17,0,0,1-.12,0,.18.18,0,0,1-.06-.13v-2.57l-.85,1.48a.44.44,0,0,1-.09.11.2.2,0,0,1-.15.05h-.35a.2.2,0,0,1-.15-.05.44.44,0,0,1-.09-.11l-.86-1.48v2.57a.17.17,0,0,1-.17.18h-.54a.18.18,0,0,1-.12,0,.17.17,0,0,1-.05-.13v-4.25a.13.13,0,0,1,.05-.12.15.15,0,0,1,.12-.05H286a.26.26,0,0,1,.2.07l.08.1Z" style="fill:#e0e0e0"></path><path d="M293.76,203.07a.17.17,0,0,1,.18.18v.46a.17.17,0,0,1-.18.18h-2.88a.17.17,0,0,1-.18-.18v-4.25a.17.17,0,0,1,.18-.17h2.83a.17.17,0,0,1,.18.17v.47a.17.17,0,0,1-.18.18h-2.12v1h2a.16.16,0,0,1,.12.06.13.13,0,0,1,.05.12v.47a.13.13,0,0,1-.05.12.16.16,0,0,1-.12.06h-2v1.09Z" style="fill:#e0e0e0"></path><circle cx="213.44" cy="187.41" r="29.59" transform="translate(-17.99 352.08) rotate(-76.72)" style="fill:#fafafa"></circle><path d="M213.44,161.4a.78.78,0,0,0-.75.81v3.33a.77.77,0,0,0,.75.8.78.78,0,0,0,.75-.81V162.2A.77.77,0,0,0,213.44,161.4Z" style="fill:#FF725E"></path><path d="M239.45,187.41a.78.78,0,0,1-.81.75h-3.33a.77.77,0,0,1-.8-.75.78.78,0,0,1,.81-.75h3.33A.77.77,0,0,1,239.45,187.41Z" style="fill:#FF725E"></path><path d="M187.43,187.41a.78.78,0,0,1,.81-.75h3.33a.77.77,0,0,1,.8.75.78.78,0,0,1-.81.75h-3.33A.77.77,0,0,1,187.43,187.41Z" style="fill:#FF725E"></path><path d="M213.44,213.42a.78.78,0,0,0,.75-.81v-3.33a.77.77,0,0,0-.75-.8.78.78,0,0,0-.75.8v3.34A.77.77,0,0,0,213.44,213.42Z" style="fill:#FF725E"></path><path d="M224.38,169.65a.2.2,0,0,1-.13,0,.25.25,0,0,1-.09-.34l2.47-4.28a.26.26,0,0,1,.35-.09.26.26,0,0,1,.09.34l-2.48,4.28A.24.24,0,0,1,224.38,169.65Z" style="fill:#455a64"></path><path d="M231.92,177.53a.26.26,0,0,1-.22-.13.25.25,0,0,1,.09-.34l4.28-2.47a.25.25,0,1,1,.25.43L232,177.5A.27.27,0,0,1,231.92,177.53Z" style="fill:#455a64"></path><path d="M202.5,169.65a.26.26,0,0,1-.22-.13l-2.47-4.28a.25.25,0,1,1,.43-.25l2.48,4.28a.26.26,0,0,1-.09.34A.22.22,0,0,1,202.5,169.65Z" style="fill:#455a64"></path><path d="M195,177.53a.24.24,0,0,1-.12,0L190.55,175a.25.25,0,1,1,.25-.43l4.29,2.47a.25.25,0,0,1-.13.47Z" style="fill:#455a64"></path><path d="M226.85,210a.25.25,0,0,1-.22-.12l-2.47-4.29a.25.25,0,0,1,.43-.25l2.48,4.29a.26.26,0,0,1-.09.34A.31.31,0,0,1,226.85,210Z" style="fill:#455a64"></path><path d="M236.2,200.26a.31.31,0,0,1-.13,0l-4.28-2.48a.25.25,0,0,1,.25-.43l4.28,2.47a.25.25,0,0,1-.12.47Z" style="fill:#455a64"></path><path d="M200,210a.28.28,0,0,1-.13,0,.25.25,0,0,1-.09-.34l2.47-4.29a.26.26,0,0,1,.35-.09.26.26,0,0,1,.09.34l-2.48,4.29A.24.24,0,0,1,200,210Z" style="fill:#455a64"></path><path d="M190.68,200.26a.26.26,0,0,1-.22-.13.25.25,0,0,1,.09-.34l4.29-2.47a.25.25,0,0,1,.34.09.26.26,0,0,1-.09.34l-4.29,2.48Z" style="fill:#455a64"></path><path d="M211.87,188.37a40.28,40.28,0,0,1-5.9,2.43l-5.41,4.13,6.29-2.62a38.55,38.55,0,0,1,5-3.94Z" style="fill:#FF725E"></path><path d="M213.44,187.41c0-5.06,1.89-4.82,1.89-4.82L213.44,168l-1.89,14.61s1.89-.24,1.89,4.82Z" style="fill:#455a64"></path><path d="M216.24,187.41a2.8,2.8,0,1,1-2.8-2.8A2.8,2.8,0,0,1,216.24,187.41Z" style="fill:#455a64"></path><path d="M214.93,187.41a1.49,1.49,0,1,1-1.49-1.49A1.49,1.49,0,0,1,214.93,187.41Z" style="fill:#263238"></path><path d="M209.49,199.29a.13.13,0,0,1,.12.05.14.14,0,0,1,.06.12v.47a.18.18,0,0,1-.06.13.17.17,0,0,1-.12.05h-1.18v3.6a.18.18,0,0,1-.06.13.17.17,0,0,1-.12,0h-.54a.18.18,0,0,1-.12,0,.17.17,0,0,1-.05-.13v-3.6h-1.19a.17.17,0,0,1-.17-.18v-.47a.17.17,0,0,1,.17-.17Z" style="fill:#e0e0e0"></path><path d="M210.5,203.89a.17.17,0,0,1-.12,0,.18.18,0,0,1-.06-.13v-4.25a.14.14,0,0,1,.06-.12.13.13,0,0,1,.12-.05H211a.16.16,0,0,1,.12.05.13.13,0,0,1,.05.12v4.25a.17.17,0,0,1-.05.13.21.21,0,0,1-.12,0Z" style="fill:#e0e0e0"></path><path d="M214.4,201.63l1.25-2.17.09-.1a.22.22,0,0,1,.19-.07h.45a.15.15,0,0,1,.12.05.13.13,0,0,1,.05.12v4.25a.17.17,0,0,1-.05.13.18.18,0,0,1-.12,0h-.54a.17.17,0,0,1-.17-.18v-2.57l-.86,1.48a.44.44,0,0,1-.09.11.2.2,0,0,1-.15.05h-.35a.2.2,0,0,1-.15-.05.44.44,0,0,1-.09-.11l-.85-1.48v2.57a.18.18,0,0,1-.06.13.17.17,0,0,1-.12,0h-.53a.17.17,0,0,1-.18-.18v-4.25a.17.17,0,0,1,.18-.17h.44a.24.24,0,0,1,.2.07l.09.1Z" style="fill:#e0e0e0"></path><path d="M220.65,203.07a.21.21,0,0,1,.12.05.17.17,0,0,1,0,.13v.46a.17.17,0,0,1,0,.13.21.21,0,0,1-.12,0h-2.89a.17.17,0,0,1-.18-.18v-4.25a.17.17,0,0,1,.18-.17h2.83a.17.17,0,0,1,.18.17v.47a.17.17,0,0,1-.18.18h-2.12v1h2a.21.21,0,0,1,.18.18v.47a.21.21,0,0,1-.18.18h-2v1.09Z" style="fill:#e0e0e0"></path><path d="M288.87,139a1.18,1.18,0,0,0-.68-1,3.62,3.62,0,0,0-3.27,0,1.16,1.16,0,0,0-.67,1v6.61a1.14,1.14,0,0,0,.67,1,3.62,3.62,0,0,0,3.27,0,1.15,1.15,0,0,0,.68-1Z" style="fill:#263238"></path><path d="M284.92,138a1.16,1.16,0,0,0-.67,1,1.14,1.14,0,0,0,.67.94,3.62,3.62,0,0,0,3.27,0,1.15,1.15,0,0,0,.68-.94,1.18,1.18,0,0,0-.68-1A3.62,3.62,0,0,0,284.92,138Z" style="fill:#455a64"></path><path d="M293.46,134.62a3.42,3.42,0,0,0-2-2.81,10.76,10.76,0,0,0-9.76,0,3.4,3.4,0,0,0-2,2.81v2.59a3.43,3.43,0,0,0,2,2.82,10.82,10.82,0,0,0,9.76,0,3.45,3.45,0,0,0,2-2.82Z" style="fill:#37474f"></path><path d="M281.68,131.81a3,3,0,0,0,0,5.63,10.82,10.82,0,0,0,9.76,0,3,3,0,0,0,0-5.63A10.76,10.76,0,0,0,281.68,131.81Z" style="fill:#455a64"></path><path d="M215.75,139a1.18,1.18,0,0,0-.68-1,3.6,3.6,0,0,0-3.26,0,1.16,1.16,0,0,0-.68,1v6.61a1.13,1.13,0,0,0,.68,1,3.6,3.6,0,0,0,3.26,0,1.15,1.15,0,0,0,.68-1Z" style="fill:#263238"></path><path d="M211.81,138a1.16,1.16,0,0,0-.68,1,1.13,1.13,0,0,0,.68.94,3.6,3.6,0,0,0,3.26,0,1.15,1.15,0,0,0,.68-.94,1.18,1.18,0,0,0-.68-1A3.6,3.6,0,0,0,211.81,138Z" style="fill:#455a64"></path><path d="M220.34,134.62a3.42,3.42,0,0,0-2-2.81,10.76,10.76,0,0,0-9.76,0,3.4,3.4,0,0,0-2,2.81v2.59a3.43,3.43,0,0,0,2,2.82,10.82,10.82,0,0,0,9.76,0,3.45,3.45,0,0,0,2-2.82Z" style="fill:#37474f"></path><path d="M208.56,131.81a3,3,0,0,0,0,5.63,10.82,10.82,0,0,0,9.76,0,3,3,0,0,0,0-5.63A10.76,10.76,0,0,0,208.56,131.81Z" style="fill:#455a64"></path></g></g><g id="freepik--Plants--inject-262"><g id="freepik--plants--inject-262"><path d="M36.88,305.55l4.69-1.06s2.53-9.63,2.31-17.84c-.32-12.28-7.22-25.08-14-28.63-6-3.14-11.38-.74-12.57,3.23-1.49,5,1.11,8.34,5.37,12.19C30.68,280.67,37.36,290.82,36.88,305.55Z" style="fill:#FF725E"></path><path d="M36.88,305.55l4.69-1.06s2.53-9.63,2.31-17.84c-.32-12.28-7.22-25.08-14-28.63-6-3.14-11.38-.74-12.57,3.23-1.49,5,1.11,8.34,5.37,12.19C30.68,280.67,37.36,290.82,36.88,305.55Z" style="fill:#fff;opacity:0.2"></path><path d="M40.41,303.76h0a.51.51,0,0,1-.31-.57c1.58-18.63-4.55-33.42-14.5-39.55a.45.45,0,1,1,.48-.77c10.25,6.31,16.48,20.71,14.9,40.58C40.92,303.68,40.64,303.8,40.41,303.76Z" style="fill:#fff"></path><path d="M37,307.2c1.42-.79,3-2.1,2.83-3.87-.4-2-1.27-2.87.21-4.72a6.81,6.81,0,0,0-1.19-8.27c-2.49-1.93-2.79-1.88-2.79-5.84S32.64,279,30,279s-3.71,0-5.47-.68c-3.1-1-5.75-3.31-9-3.75-2.16-.26-5.15.22-6.09,2.44-.82,2.55,1.73,4.43,3.17,6.18a4.08,4.08,0,0,1,.33,5.16c-.78,1.72-.8,4,.56,5.28,1.71,1.64,4.63,1.05,6.65,2.3,3.49,2.05-3.47,10,6.4,10,1.54,0,3.42-.13,4.75.81C32.67,309.2,34.93,308.51,37,307.2Z" style="fill:#FF725E"></path><path d="M37,307.2c1.42-.79,3-2.1,2.83-3.87-.4-2-1.27-2.87.21-4.72a6.81,6.81,0,0,0-1.19-8.27c-2.49-1.93-2.79-1.88-2.79-5.84S32.64,279,30,279s-3.71,0-5.47-.68c-3.1-1-5.75-3.31-9-3.75-2.16-.26-5.15.22-6.09,2.44-.82,2.55,1.73,4.43,3.17,6.18a4.08,4.08,0,0,1,.33,5.16c-.78,1.72-.8,4,.56,5.28,1.71,1.64,4.63,1.05,6.65,2.3,3.49,2.05-3.47,10,6.4,10,1.54,0,3.42-.13,4.75.81C32.67,309.2,34.93,308.51,37,307.2Z" style="fill:#fff;opacity:0.4"></path><path d="M36.74,307.27a.43.43,0,0,1-.32-.35c-2-11.36-10-21.64-22.43-28.92a.45.45,0,0,1,.45-.77c12.66,7.42,20.78,17.91,22.86,29.53a.45.45,0,0,1-.36.52A.34.34,0,0,1,36.74,307.27Z" style="fill:#fff"></path></g><g id="freepik--plants--inject-262"><path d="M467.18,305.55l-4.69-1.06s-2.54-9.63-2.32-17.84c.33-12.28,7.23-25.08,14-28.63,6-3.14,11.38-.74,12.57,3.23,1.49,5-1.11,8.34-5.38,12.19C473.38,280.67,466.7,290.82,467.18,305.55Z" style="fill:#FF725E"></path><path d="M467.18,305.55l-4.69-1.06s-2.54-9.63-2.32-17.84c.33-12.28,7.23-25.08,14-28.63,6-3.14,11.38-.74,12.57,3.23,1.49,5-1.11,8.34-5.38,12.19C473.38,280.67,466.7,290.82,467.18,305.55Z" style="fill:#fff;opacity:0.2"></path><path d="M463.64,303.76h.05a.49.49,0,0,0,.3-.57c-1.57-18.63,4.56-33.42,14.51-39.55a.45.45,0,1,0-.48-.77c-10.25,6.31-16.48,20.71-14.9,40.58A.43.43,0,0,0,463.64,303.76Z" style="fill:#fff"></path><path d="M467.06,307.2c-1.42-.79-2.95-2.1-2.83-3.87.4-2,1.27-2.87-.22-4.72a6.82,6.82,0,0,1,1.2-8.27c2.48-1.93,2.79-1.88,2.79-5.84s3.42-5.51,6.09-5.51,3.71,0,5.47-.68c3.1-1,5.75-3.31,9-3.75,2.16-.26,5.15.22,6.09,2.44.82,2.55-1.73,4.43-3.17,6.18a4.07,4.07,0,0,0-.33,5.16c.78,1.72.8,4-.56,5.28-1.72,1.64-4.63,1.05-6.65,2.3-3.49,2.05,3.47,10-6.4,10-1.54,0-3.43-.13-4.75.81C471.39,309.2,469.13,308.51,467.06,307.2Z" style="fill:#FF725E"></path><path d="M467.06,307.2c-1.42-.79-2.95-2.1-2.83-3.87.4-2,1.27-2.87-.22-4.72a6.82,6.82,0,0,1,1.2-8.27c2.48-1.93,2.79-1.88,2.79-5.84s3.42-5.51,6.09-5.51,3.71,0,5.47-.68c3.1-1,5.75-3.31,9-3.75,2.16-.26,5.15.22,6.09,2.44.82,2.55-1.73,4.43-3.17,6.18a4.07,4.07,0,0,0-.33,5.16c.78,1.72.8,4-.56,5.28-1.72,1.64-4.63,1.05-6.65,2.3-3.49,2.05,3.47,10-6.4,10-1.54,0-3.43-.13-4.75.81C471.39,309.2,469.13,308.51,467.06,307.2Z" style="fill:#fff;opacity:0.4"></path><path d="M467.32,307.27a.43.43,0,0,0,.32-.35c2-11.36,10-21.64,22.43-28.92a.45.45,0,0,0,.16-.61.44.44,0,0,0-.61-.16c-12.66,7.42-20.78,17.91-22.86,29.53a.45.45,0,0,0,.36.52A.34.34,0,0,0,467.32,307.27Z" style="fill:#fff"></path></g></g><g id="freepik--character-2--inject-262"><g id="freepik--Chartacter--inject-262"><g id="freepik--Bottom--inject-262"><path d="M466.58,304.78c-.65-9.48-1-13.91-1.89-30.84h0c-.08-4.34-.23-9-.52-13.12-1-13.9-2.77-17.21-4-22s-2.16-13.68-4-43.56a154.16,154.16,0,0,0-5.51-33.77h-42.8c-4.4,18.74-5.65,59.3-5.52,78.61.07,9.85.17,60.71-.07,64.77a13.73,13.73,0,0,1-4.12,8.82c-3.53,3.78-6.06,5.32-10.48,8.62.64,1.69,9.91,1.62,12.54.34a99.48,99.48,0,0,0,11.06-6.5c3.63-2.69,4.48-4.31,4.54-8.4a10.7,10.7,0,0,0,0-1.34c.07-2.38,7-38,8.46-46.07,1.16-6.25-.11-18.36-.11-18.36l4.53-29.77s5.12,19.76,7.85,31.8c2,8.84,7,22.81,10.23,37h0c3.8,14.38,4.11,15.65,6.35,25.95,1.13,5.19,3.89,22.65,5.15,26.24,4.06,11.59,13.26,5.83,13.78-.57C472.41,328.35,466.72,306.82,466.58,304.78Z" style="fill:#ffbda7"></path><path d="M428.7,212.24l-3.31-21.48s-12.82-1.52-17.48-6c0,0,5.88,8.3,14.57,9.65l3.66,17.8-1.93,29.55Z" style="fill:#f0997a"></path><path d="M377.92,327.13a3.75,3.75,0,0,0,.66,3.78c1.49,1.31,5.88,3.49,11.73,2.8s9-2.47,11.38-4.4,5.66-4.65,8.3-5.2c2.46-.51,6.47-1.85,7.26-2.6s.72-4.12.72-4.12Z" style="fill:#263238"></path><path d="M415.9,305.55a1.79,1.79,0,0,1,.93,1.15c.17.93.16,2.12.53,3.65a27,27,0,0,1,.49,8.19c-.34,1.73-5.68,3.14-8.25,4.09a32.42,32.42,0,0,0-8.33,5.13,24.06,24.06,0,0,1-12.36,4.46c-5.81,0-9.56-1.59-10.69-3.69-1.41-2.6-.27-4.08,6.43-7.11,1.27-.57,5.74-3.15,7.26-4.08a34.75,34.75,0,0,0,4.58-3.33,25.9,25.9,0,0,0,2.06-2,8.81,8.81,0,0,0,1.71-2.14c.08-.17.13-.38.2-.56a9.29,9.29,0,0,0,.45-1.56c.12-.55.19-1.36.72-1.69a4.51,4.51,0,0,1,2.39-.25,17,17,0,0,1,2.57.39c1,.23,3.45.07,4,1a4.81,4.81,0,0,1,.52,2.42c0,.39,0,.79,0,1.18,0,.16-.07.46.16.39s.48-.64.57-.84c.19-.43.31-.9.52-1.32a3.92,3.92,0,0,1,.84-1.41c1.12-.92,2.19-.72,2.52-1C415.74,306.58,415.86,305.88,415.9,305.55Z" style="fill:#37474f"></path><path d="M383.57,321.92c8.4.67,11,5.89,11.32,9.11a20.15,20.15,0,0,1-6,1.19c-5.81,0-9.8-1.59-10.93-3.69C376.65,326.08,377.59,324.12,383.57,321.92Z" style="fill:#fafafa"></path><path d="M396.17,322.14a.38.38,0,0,0,.27-.09.41.41,0,0,0,.06-.57,9.88,9.88,0,0,0-7.57-3.08.41.41,0,0,0-.37.45.4.4,0,0,0,.45.36,9.17,9.17,0,0,1,6.85,2.78A.39.39,0,0,0,396.17,322.14Z" style="fill:#f0f0f0"></path><path d="M399.82,320.07a.43.43,0,0,0,.26-.09.4.4,0,0,0,.06-.57,9.83,9.83,0,0,0-7.57-3.08.41.41,0,0,0-.37.45.41.41,0,0,0,.45.36,9.14,9.14,0,0,1,6.85,2.78A.41.41,0,0,0,399.82,320.07Z" style="fill:#f0f0f0"></path><path d="M403.2,317.7a.43.43,0,0,0,.26-.09.41.41,0,0,0,.06-.58A9.91,9.91,0,0,0,396,314a.43.43,0,0,0-.37.45.41.41,0,0,0,.45.37,9.16,9.16,0,0,1,6.85,2.78A.41.41,0,0,0,403.2,317.7Z" style="fill:#f0f0f0"></path><path d="M406.51,315.32a.37.37,0,0,0,.26-.08.41.41,0,0,0,.07-.58c-1.59-2.05-5.21-3.43-8.27-3.13a.42.42,0,0,0-.37.45.41.41,0,0,0,.45.37c2.75-.27,6.13,1,7.54,2.82A.41.41,0,0,0,406.51,315.32Z" style="fill:#f0f0f0"></path><path d="M457,334.52c.66,3.91,1.56,6.45,3.22,8.61s4.36,2.58,7,1.61,5.81-3.16,6.19-6.64.58-5.85-.43-9.43Z" style="fill:#263238"></path><path d="M466.58,304.78c1.11,0,1.4,5.21,2.62,10.43,1.31,5.6,2.37,7.76,3.5,12.34,1.28,5.23.66,7.71-.84,11.12s-7.75,7.3-11.5,3.06c-3.07-3.45-3.64-7.6-4-12.93a77.14,77.14,0,0,0-2.21-13.23c-.94-4.23-1.95-8.07-1-8.62a38.21,38.21,0,0,0,1.12,4.21c.15.29.66,1,.7-.15,0-.33-.17-1.08-.18-1.41a1.4,1.4,0,0,1,.86-1.38,10.5,10.5,0,0,1,4.57-1.55c2.14-.25,4-.53,5.26-.05.76.29.82,1,1,1.64s.25,1.28.43,1.1C467.22,309,466.53,305.36,466.58,304.78Z" style="fill:#37474f"></path><path d="M473.34,330.59a13.28,13.28,0,0,1-1.16,8.3c-1.5,3.42-8.27,7.37-12,3.13-1.87-2.11-2.6-4.77-3.13-7.5C458.57,330.76,469.94,327.92,473.34,330.59Z" style="fill:#fafafa"></path><path d="M458.78,328.48a.38.38,0,0,0,.13-.06s4.89-2.69,10-2.09a.41.41,0,0,0,.1-.82,19.16,19.16,0,0,0-10.5,2.22.4.4,0,0,0-.14.56A.43.43,0,0,0,458.78,328.48Z" style="fill:#f0f0f0"></path><path d="M468.2,322.4a.42.42,0,0,0,0-.81c-5.11-1.12-10.3,2-10.5,2.12a.41.41,0,0,0-.11.57.42.42,0,0,0,.57.11s5.1-3,9.86-2A.54.54,0,0,0,468.2,322.4Z" style="fill:#f0f0f0"></path><path d="M467.61,318.68a.41.41,0,0,0,0-.8c-5.64-1.34-10.52,2-10.7,2.11a.41.41,0,1,0,.5.65s4.76-3.21,10-2Z" style="fill:#f0f0f0"></path><path d="M466.93,315a.41.41,0,0,0,.31-.3.4.4,0,0,0-.29-.5c-5.29-1.34-10.57,2.09-10.77,2.23a.4.4,0,0,0-.08.57.4.4,0,0,0,.57.09c.05,0,5.16-3.34,10.08-2.1A.37.37,0,0,0,466.93,315Z" style="fill:#ebebeb"></path><path d="M454.11,161.52c1.61,11.69,2.11,14.56,3.86,40.58,1.69,25.24,1.83,28.94,2.08,32,.57,7,3.66,9.38,4.56,25.84.83,15.07,1.32,33.67,1.32,33.67s-2,2.79-7.77,3.31c-5.3.47-8-1.52-8-1.52s-9.82-35.14-12.56-44c-3.72-12-8.95-33.09-8.95-33.09l-3.46,24.13a86.85,86.85,0,0,1-1.13,22.47c-2.78,13.53-5.61,28.23-5.61,28.23a18.1,18.1,0,0,1-8,1c-6.2-.63-8.27-2.07-8.27-2.07s-1.74-40.88-1.74-55.81.18-51.48,1.06-74.72Z" style="fill:#455a64"></path><path d="M428.7,218.29l-4.3-26.12s-8.65-2.29-14.2-8.09c.42,4.33,8.1,9.88,11.7,10.74L426.71,218l-1.47,24.45Z" style="fill:#37474f"></path><path d="M438.74,165.57a36.06,36.06,0,0,1,3.24,6.85,68.83,68.83,0,0,1,2.16,7.27c.57,2.46,1,4.94,1.37,7.44a48.91,48.91,0,0,1,.49,7.56c-.6-2.46-1.16-4.9-1.72-7.34s-1.1-4.87-1.69-7.3-1.17-4.84-1.79-7.26S439.49,168,438.74,165.57Z" style="fill:#37474f"></path><path d="M442,166.48a26.92,26.92,0,0,1,3.41,3.83,35.67,35.67,0,0,1,2.78,4.32,32.93,32.93,0,0,1,2.11,4.69,19.93,19.93,0,0,1,1.15,5l-2.29-4.52c-.78-1.48-1.55-3-2.37-4.42s-1.61-2.93-2.42-4.4S442.78,168,442,166.48Z" style="fill:#37474f"></path><path d="M436.55,196.69c1.09,7.83,2.07,15.67,3.05,23.5s2.9,16.47,4.34,24.2,10.58,38,11.78,45.84c-1.81-7.7-11.83-37.77-13.34-45.55s-3.24-16.49-4-24.35S437,204.58,436.55,196.69Z" style="fill:#37474f"></path><path d="M408.44,196.69l-1.29,20.6c-.19,3.43-.41,6.86-.57,10.29s-.36,6.86-.3,10.25.28,36.29-.18,43.17c-.81-7.66-1.18-36.22-1.41-43.14,0-7,.61-13.8,1.23-20.67S407.38,203.5,408.44,196.69Z" style="fill:#37474f"></path><path d="M419.14,289.81,418,297s-2.87,1.83-8.88,1.21-6.89-2.57-6.89-2.57v-6.73s1.45,1.4,6.94,2A23.66,23.66,0,0,0,419.14,289.81Z" style="fill:#37474f"></path><path d="M465.81,288.6l.53,7.23s-2.36,2.45-8.35,3.25-7.3-.89-7.3-.89l-1.57-6.55s1.73,1,7.22.35A23.67,23.67,0,0,0,465.81,288.6Z" style="fill:#37474f"></path></g><g id="freepik--Top--inject-262"><path d="M400.77,138.9l-12.24,11.59s-2.47-1.72-1.63-6.46c1.29-7.25,5.74-23.1,8.43-29.17s5-8,12.45-10.33L411,118.87Z" style="fill:#455a64"></path><g id="freepik--Chest--inject-262"><path id="freepik--chest--inject-262" d="M436.35,101.08c8.4,1.88,10.92,2.7,14.9,3.62,0,0,7.39,8.88,3.83,35.54-.45,3.42-.37,11.64-.23,17.58s.77,12.48,1.39,18.66c0,0-11,8.13-34.48,5.73-18.45-1.89-20.67-8.76-20.67-8.76s-.14-25.19-.39-38.83c-.29-16.48,2.91-25.56,7.08-30.09.66-.38,12.63-3.32,12.63-3.32Z" style="fill:#f0f0f0"></path></g><g id="freepik--Head--inject-262"><path d="M409.05,74.4c-2-4.6,0-10.7,2.35-13.57,3.47-4.14,8.86-5.93,17-5.42,6.19.38,13.59,3.14,14.75,9.48,5.73,2.9,3.69,10.85,2.17,14.2-3.21,7-7.77,12.52-7.85,16.26Z" style="fill:#263238"></path><path d="M409.45,92a10.53,10.53,0,0,0,7.73,6.32,21.65,21.65,0,0,0,3.3.26l-.13,4.12c-.8,3.61.06,6.79,2.48,8.87,11.06-2.12,14.87-7.95,14.87-7.95V88.48s2,2.27,5.29.12c2.26-1.47,4.27-5.49,2.24-8.78a4.24,4.24,0,0,0-6.58-.89c-1,1-1.5,2.92-2.34,2.65a3,3,0,0,1-2-2.07,18.23,18.23,0,0,1-1.07-6.67,8.85,8.85,0,0,1-2.55-2,8.25,8.25,0,0,1-2.22-5.1c-7.05-2.21-15.15-1.17-18.08,1.1-1.69,3-1.75,9.87-2,13.85C408,85,408.19,88.62,409.45,92Z" style="fill:#ffbda7"></path><path d="M420.48,98.61c3.61-.2,10.86-1.89,12.8-3.9S436,88.58,436,88.58s-.29,5.2-1.78,7.49-5.27,3.3-7.56,3.87a56.19,56.19,0,0,1-6.28,1Z" style="fill:#f0997a"></path><polygon points="419.87 75.67 418.76 85.66 413.87 83.77 419.87 75.67" style="fill:#f0997a"></polygon><path d="M423,89a1.57,1.57,0,1,1-1.53-1.61A1.57,1.57,0,0,1,423,89Z" style="fill:#b16668"></path><path d="M420.38,90.08a1.54,1.54,0,0,0,1,.42A1.57,1.57,0,0,0,423,89a1.62,1.62,0,0,0-.19-.79A4.71,4.71,0,0,0,420.38,90.08Z" style="fill:#f28f8f"></path><path d="M411.63,78.09c-.28.79.28,1,1,1.31s1.44.43,1.72-.36a1.46,1.46,0,1,0-2.76-1Z" style="fill:#263238"></path><path d="M414.23,77.42a3.9,3.9,0,0,0-1.1-.39A2.88,2.88,0,0,0,412,77a3.78,3.78,0,0,0-1.15.33s-.05.1,0,.1a8.35,8.35,0,0,1,1-.1,5,5,0,0,1,1.27.15,5.13,5.13,0,0,1,1.43.53l.47.26s.08-.08.06-.12A2.69,2.69,0,0,0,414.23,77.42Z" style="fill:#263238"></path><path d="M414.47,72.92l-3.28,1.38a1.87,1.87,0,0,1,1-2.39A1.73,1.73,0,0,1,414.47,72.92Z" style="fill:#263238"></path><path d="M426.73,78.52c.27.79-.28,1-1,1.31s-1.44.43-1.72-.36a1.46,1.46,0,1,1,2.76-1Z" style="fill:#263238"></path><path d="M424.13,77.86a3.54,3.54,0,0,1,1.1-.4,3.07,3.07,0,0,1,1.13-.06,3.78,3.78,0,0,1,1.15.33s.05.1,0,.1a8.17,8.17,0,0,0-1-.1,5.85,5.85,0,0,0-2.71.69l-.46.25s-.08-.08-.06-.12A2.54,2.54,0,0,1,424.13,77.86Z" style="fill:#263238"></path><path d="M424.81,73.53l3.29,1.38a1.87,1.87,0,0,0-1-2.39A1.75,1.75,0,0,0,424.81,73.53Z" style="fill:#263238"></path><path d="M413.89,58.51,430,65.31c12.05,5.17,9.08,14.46,6.47,16.3a13.33,13.33,0,0,1-7.73-14.32c-1.39,3.28-6.37,5.82-9.25,6,1.38-1.56,1-4.2,1-4.2s-.59,1.52-4.69,3.72A12.57,12.57,0,0,1,407,74.05S405.76,63.11,413.89,58.51Z" style="fill:#263238"></path></g><path d="M451.25,104.7c7.56,2.14,11.12,7.58,9.73,15.39-1.9,10.68-6.85,24.35-10,31.11-2.77,6-4.22,6.82-7.2,7.34L438.74,135l5.79-17.66S447.85,106.31,451.25,104.7Z" style="fill:#455a64"></path><g id="freepik--Hand--inject-262"><path d="M434.66,111.86c-1.13-5.62-.84-8.23-2.67-11a54.91,54.91,0,0,0-5.51-6.17c-1.08-1-3.26-2.37-5-3.75s-2.23-1.74-4.29-1.66c-2.83.11-5.06.13-6.06.68s-.82,1.24.31,2,3.13.57,3.77.63,2.1.35,2.1.35l3.31,3.2a38.76,38.76,0,0,0-4.87,2.32c-.74.63-1,3-.38,4.08a2.36,2.36,0,0,0-.41,2.81s-.7,1.45.17,2.34a17.3,17.3,0,0,0,3.15,2.3,7.1,7.1,0,0,0,2.7,0,22.88,22.88,0,0,0,1.28,3.86c1.17,2.35,2.41,2.5,2.93,4.57Z" style="fill:#ffbda7"></path><path d="M434.66,111.86c-.39-1.85-.66-3.73-1-5.6a12.47,12.47,0,0,0-1.77-5.33,44.19,44.19,0,0,0-3.68-4.3c-.66-.69-1.31-1.38-2-2s-1.5-1.15-2.27-1.7-1.55-1.09-2.3-1.67a10.82,10.82,0,0,0-2.32-1.58,6.54,6.54,0,0,0-2.76-.24c-.95,0-1.9.07-2.84.14a6.69,6.69,0,0,0-2.69.59,1.06,1.06,0,0,0-.44.45.63.63,0,0,0,.1.57,3,3,0,0,0,1,.85,7.12,7.12,0,0,0,2.73.44c.24,0,.47,0,.72,0l.71.12,1.4.24h0l0,0,3.3,3.2.12.11-.15.07c-1.49.62-3,1.24-4.4,2a2.23,2.23,0,0,0-1.1,1.94,4.16,4.16,0,0,0,.28,2.32l0,0,0,.05a2.81,2.81,0,0,0-.68,1.3,1.85,1.85,0,0,0,.27,1.41l0,0,0,0a2.15,2.15,0,0,0,0,2.1,10.08,10.08,0,0,0,1.72,1.45c.31.22.62.44.94.64a2.54,2.54,0,0,0,1,.47A10,10,0,0,0,421,110H421v0a16.76,16.76,0,0,0,1.58,4.47,11,11,0,0,0,1.45,1.88,4.84,4.84,0,0,1,1.12,2.09,4.75,4.75,0,0,0-1.14-2.07,11.59,11.59,0,0,1-1.48-1.87,17,17,0,0,1-1.64-4.47l.06,0a9.75,9.75,0,0,1-2.29.11,2.48,2.48,0,0,1-1-.49c-.33-.2-.64-.41-1-.63A10.31,10.31,0,0,1,415,107.6a2.3,2.3,0,0,1-.05-2.26v.08a2.08,2.08,0,0,1-.31-1.53,3.09,3.09,0,0,1,.72-1.39v.1a4.29,4.29,0,0,1-.31-2.42,4.16,4.16,0,0,1,.31-1.2,1.74,1.74,0,0,1,.87-.88,46.38,46.38,0,0,1,4.42-2l0,.17-3.31-3.18.06,0-1.39-.24-.7-.11c-.23,0-.47,0-.7,0a7,7,0,0,1-2.84-.46,3.2,3.2,0,0,1-1.13-.94.86.86,0,0,1-.12-.78A1.34,1.34,0,0,1,411,90a6.74,6.74,0,0,1,2.81-.61c.95-.07,1.89-.09,2.84-.13a6.91,6.91,0,0,1,2.85.26,11.41,11.41,0,0,1,2.35,1.62c.75.58,1.52,1.13,2.29,1.68s1.55,1.09,2.27,1.72,1.36,1.34,2,2a46.11,46.11,0,0,1,3.68,4.34,12.4,12.4,0,0,1,1.73,5.39C434,108.12,434.3,110,434.66,111.86Z" style="fill:#f0997a"></path><path d="M418.78,97c-1.1-.23-1.47-.87-2.36-.3s-.28,1.58-.28,1.58Z" style="fill:#f0997a"></path><path d="M415.43,102.65a9.54,9.54,0,0,1,1.8-1.78c.63-.49,2-1.32,2-1.32a10.59,10.59,0,0,0-2.82,1.33,8.93,8.93,0,0,0-1.26,1,2.74,2.74,0,0,0,.25.68Z" style="fill:#f0997a"></path><path d="M415.59,104.12a9.29,9.29,0,0,0-.88.7,3,3,0,0,0,.31.66c.39-.92,2.34-2.24,2.34-2.24A8.38,8.38,0,0,0,415.59,104.12Z" style="fill:#f0997a"></path><path d="M421,110a7.56,7.56,0,0,0-2.29-2.45,1.59,1.59,0,0,0-2.14.24c-.18.47,1.2.12,1.64.22A8.9,8.9,0,0,1,421,110Z" style="fill:#f0997a"></path><path d="M421.78,95.8s-1-.94-2.79-2.41-1.64-1.23-3.06-1.21-4.09.1-5-.57a5.66,5.66,0,0,0,.49.37c1.09.73,3.13.57,3.77.63s2.1.35,2.1.35l3.4,3.29Z" style="fill:#f0997a"></path><path d="M434.66,111.86c1,5,13.93,25.87,15,30.51s-2,13.48-4.32,15.34-7.72-.22-10.51-5.37-8-26.78-9.65-33.88Z" style="fill:#ffbda7"></path></g><g id="freepik--Arm--inject-262"><path d="M451.35,152.39c-.42.78-1.36,1.51-1.46,2.32-.25,2-4.48,3.2-6,4.69-4.46,3-15.82,3.3-24.48,2.12-14.12-1.91-26.19-6.1-30-10-2.29-2.37-1.61-4.1-1.16-5.42a12,12,0,0,1,2.71-4.17c3.52-3.89,7.41-3.45,9.83-3a7.13,7.13,0,0,0,.71.67c4.51,4.26,12.59,8.74,17.79,9.66a38.67,38.67,0,0,0,6.09.74,4.56,4.56,0,0,0,3.22-1.85,17.34,17.34,0,0,1,4.76-3.67,21,21,0,0,0,4-3c.36-.32,1-.11,1.37.22a1.59,1.59,0,0,1,.38,1.39c-.27,2.48-2.23,4.24-3.53,6.26a2.62,2.62,0,0,0-.56,1.85,1.94,1.94,0,0,0,1.34,1.35c1.84.64,11.11.45,15.33-2.88A5.27,5.27,0,0,1,451.35,152.39Z" style="fill:#ffbda7"></path><path d="M428.58,148.11a17.27,17.27,0,0,1,3.93-3.34c.74-.45,1.49-.84,2.18-1.35s1.33-1.06,2-1.62l.49-.43a.92.92,0,0,1,.73-.26,1.57,1.57,0,0,1,1.23.75,2.14,2.14,0,0,1,.18,1.39,5.77,5.77,0,0,1-.33,1.3,20.79,20.79,0,0,1-2.81,4.37,3.55,3.55,0,0,0-.93,2.15,1.85,1.85,0,0,0,1.64,1.37,24.61,24.61,0,0,0,5.08.08,28.76,28.76,0,0,0,5.05-.83,13.58,13.58,0,0,0,4.68-2,14.08,14.08,0,0,1-4.61,2.27,28.46,28.46,0,0,1-5.08,1,21.54,21.54,0,0,1-5.2,0,2.27,2.27,0,0,1-2-1.75,3.9,3.9,0,0,1,1-2.5,20.33,20.33,0,0,0,2.8-4.24,5.57,5.57,0,0,0,.31-1.2,1.75,1.75,0,0,0-.11-1.12,1.2,1.2,0,0,0-.89-.54.52.52,0,0,0-.44.14l-.5.42c-.66.55-1.33,1.1-2,1.59s-1.5.88-2.24,1.3A16.83,16.83,0,0,0,428.58,148.11Z" style="fill:#f0997a"></path></g><path d="M403.67,141.43c-2.08-1.73-7.31-2.82-11.57-.66,3.47-3.24,8.67-1.87,8.67-1.87Z" style="fill:#f0997a"></path></g></g></g><g id="freepik--character-1--inject-262"><g id="freepik--Character--inject-262"><path d="M105.79,173.66a1.38,1.38,0,0,0-1.5.72c-.21-.15-.34-.43-.59-.5s-.59.18-.78.44a5.87,5.87,0,0,0,.15,6.9,1,1,0,0,0,.34.31,1.11,1.11,0,0,0,.51.06,11.45,11.45,0,0,0,2.73-.51,3,3,0,0,0,2.14-1.62,3.38,3.38,0,0,0-.14-2,5.09,5.09,0,0,0-1.17-2.34C107.06,174.69,106.38,173.8,105.79,173.66Z" style="fill:#9a4a4d"></path><path d="M87.73,106c8.93,1.65,10.87,1.66,16,9.73,6,9.45,13.23,21.33,14.48,24,2.27,4.9,2.33,6.71-4.51,15.5-4.26,5.48-8.86,12.07-10.36,14-.71.92.1,2.71.54,3.78.68,1.68,0,3.54.55,6.77a14.92,14.92,0,0,1,3.61-1.3s-2.51-2.5-1.53-4.27a.54.54,0,0,1,.79-.19c.59.42,1.53,1.4,2.62,2.39,1.93,1.73,1.45,2.13.68,5.23-.31,1.24-1.25,1.62-4.93,2.49s-4.8.41-9.48-3.25-4.07-13.46-1.95-17.25,9.28-18.39,9.28-18.39L89,123.81Z" style="fill:#b16668"></path><path d="M103.54,145.28a10.62,10.62,0,0,0,8.14,1.69,8.15,8.15,0,0,1-8.61-.74" style="fill:#9a4a4d"></path><g id="freepik--bottom--inject-262"><path d="M39,309.13c.84-11.57-.46-20.43.51-38.5h0c.08-4.63.25-9.59.56-14,1-14.82,3.33-19.89,3.54-22.75,0,0,.39-23.07,1.36-55.52.46-15.26,4.88-19.88,8.41-28H96.31c4.69,20,5.11,63.58,5,84.18-.08,10.51-4.31,66.69-4.4,68-.3,4.59.1,6.4,1.9,8.33,3.76,4,9.22,7.88,13.93,11.4-.68,1.8-6.35,1.74-9.16.36A71.38,71.38,0,0,1,93.08,316c-3.87-2.87-8.83-5.17-8.89-9.53a4.43,4.43,0,0,0-.13-.78c-.07-2.55-6-40.14-6.51-48.86-.42-7.5.49-20.22.49-20.22L73.2,204.8s-3,18.78-6,31.6c-2.46,10.43-6.51,28.24-9.27,41.08h0c-2.66,14.8-6.56,25.33-7.23,32.73-.2,1.77-2.21,19.13-3,23.1s-9.5,4.08-10.05-2.75C37.25,326,38.84,311.31,39,309.13Z" style="fill:#b16668"></path><path d="M120.74,326.88a3.75,3.75,0,0,1-.66,3.78c-1.49,1.31-5.88,3.49-11.72,2.79s-9-2.46-11.37-4.39-5.66-4.64-8.3-5.2c-2.46-.51-5.13-1.59-5.92-2.34s-.72-4.12-.72-4.12Z" style="fill:#263238"></path><path d="M83.94,304.41s-.44,0-.58.8c-.17.93-.34,3.63-.71,5.16a27.3,27.3,0,0,0-.48,8.19c.34,1.72,4.34,2.88,6.91,3.82a32.43,32.43,0,0,1,8.32,5.14A24.14,24.14,0,0,0,109.76,332c5.8,0,9.54-1.6,10.68-3.69,1.41-2.6.27-4.08-6.43-7.1-1.27-.57-5.73-3.15-7.26-4.08a34.66,34.66,0,0,1-4.57-3.33,27.65,27.65,0,0,1-2.06-2,9.2,9.2,0,0,1-1.71-2.14c-.08-.18-.13-.38-.2-.56a9.57,9.57,0,0,1-.45-1.56c-.11-.56-.19-1.36-.72-1.69a4.6,4.6,0,0,0-2.39-.26,18.42,18.42,0,0,0-2.56.4c-1,.23-2.12.33-2.69,1.25a4.83,4.83,0,0,0-.52,2.43c0,.38,0,.78,0,1.17,0,.16.07.46-.16.39s-.48-.64-.56-.84c-.19-.43-.32-.89-.52-1.32a7.06,7.06,0,0,0-.85-1.4,6.77,6.77,0,0,0-1.07-1.07,12.42,12.42,0,0,1-1.15-.73A2.65,2.65,0,0,1,83.94,304.41Z" style="fill:#37474f"></path><path d="M115.09,321.68c-8.4.67-11,5.88-11.31,9.1a20.09,20.09,0,0,0,6,1.19c5.8,0,9.78-1.6,10.92-3.69C122,325.83,121.07,323.87,115.09,321.68Z" style="fill:#fafafa"></path><path d="M102.49,321.9a.43.43,0,0,1-.26-.09.42.42,0,0,1-.06-.58,9.88,9.88,0,0,1,7.56-3.07.4.4,0,0,1,.37.44.4.4,0,0,1-.45.37,9.18,9.18,0,0,0-6.84,2.77A.42.42,0,0,1,102.49,321.9Z" style="fill:#f0f0f0"></path><path d="M98.85,319.83a.43.43,0,0,1-.26-.09.42.42,0,0,1-.06-.58,9.86,9.86,0,0,1,7.56-3.07.41.41,0,1,1-.08.81,9.15,9.15,0,0,0-6.84,2.78A.41.41,0,0,1,98.85,319.83Z" style="fill:#f0f0f0"></path><path d="M95.48,317.46a.42.42,0,0,1-.33-.67,9.93,9.93,0,0,1,7.57-3.08.41.41,0,0,1,.36.45.4.4,0,0,1-.44.37,9.21,9.21,0,0,0-6.85,2.77A.4.4,0,0,1,95.48,317.46Z" style="fill:#f0f0f0"></path><path d="M92.17,315.09a.43.43,0,0,1-.26-.09.41.41,0,0,1-.07-.58c1.59-2.05,5.21-3.42,8.26-3.12a.41.41,0,1,1-.08.81c-2.75-.26-6.12,1-7.53,2.82A.45.45,0,0,1,92.17,315.09Z" style="fill:#f0f0f0"></path><path d="M50.39,336.41c-.23,4-.85,6.59-2.25,8.91s-4.06,3.06-6.75,2.38-6.12-2.5-6.89-5.92-1.22-5.76-.61-9.44Z" style="fill:#263238"></path><path d="M39.1,307.72c-1.11.09-1.44,5.41-2.08,10.73-.68,5.71-2.38,8.07-3,12.76-.7,5.34.18,7.73,2.06,11s8.5,6.4,11.77,1.77c2.67-3.77,2.78-8,2.54-13.3a118.14,118.14,0,0,1,.35-13.53c.22-4,1.1-8.05.14-8.49-.07.59-.14,1.33-.22,1.91a9.49,9.49,0,0,1-.36,2.13c-.11.3-.36.61-.46.13a3.35,3.35,0,0,1,0-1c.16-1.47-.58-1.59-1-1.71a49,49,0,0,0-5.13-.72c-.85-.06-3.77-.19-4.15.29a3.41,3.41,0,0,0-.37,1.55c-.09.8-.28,1.39-.3,1.14-.06-.57.06-2.07.07-2.43s.07-.82.08-1.17S39.07,308.06,39.1,307.72Z" style="fill:#37474f"></path><path d="M33.72,334.3a13.32,13.32,0,0,0,2.07,8.13c1.87,3.24,9,6.42,12.31,1.79,1.63-2.31,2.06-5,2.29-7.81C48.43,332.84,36.81,331.27,33.72,334.3Z" style="fill:#fafafa"></path><path d="M48,330.59a.31.31,0,0,1-.13,0,18.76,18.76,0,0,0-10.15-1,.43.43,0,0,1-.5-.31.41.41,0,0,1,.31-.49,19.32,19.32,0,0,1,10.69,1,.42.42,0,0,1,.19.55A.4.4,0,0,1,48,330.59Z" style="fill:#f0f0f0"></path><path d="M37.93,325.58a.41.41,0,0,1-.09-.79c5-1.68,10.47.84,10.68.95a.4.4,0,0,1,.17.55.41.41,0,0,1-.55.17s-5.42-2.47-10-.9A.37.37,0,0,1,37.93,325.58Z" style="fill:#f0f0f0"></path><path d="M38.11,321.83a.44.44,0,0,1-.35-.27A.42.42,0,0,1,38,321c5.46-1.95,10.68.8,10.88.92a.42.42,0,0,1,.14.56.41.41,0,0,1-.57.14s-5.09-2.66-10.17-.85Z" style="fill:#f0f0f0"></path><path d="M38.38,318.12a.39.39,0,0,1-.34-.26.41.41,0,0,1,.24-.53c5.11-1.91,10.74.91,10.95,1a.41.41,0,0,1-.41.71s-5.51-2.76-10.26-1A.37.37,0,0,1,38.38,318.12Z" style="fill:#ebebeb"></path><path d="M52.26,150.38c-5,9.07-8.67,16.62-9.17,43.61s-.42,34.54-.53,37.79-2,9.07-3.66,25.1.3,35.12.3,35.12,1.15,2.58,7.28,3.13c5.65.5,8.45-1.62,8.45-1.62s7.75-31.21,9.9-40.86,8.37-41.39,8.37-41.39L76.9,237s-1.73,8.84,0,22.9,4.76,28.45,4.76,28.45a25.6,25.6,0,0,0,8.68,1.42,14.75,14.75,0,0,0,7.62-2S102.77,246,102.77,230s-.43-56.07-5.44-79.65Z" style="fill:#FF725E"></path><path d="M52.26,150.38c-5,9.07-8.67,16.62-9.17,43.61s-.42,34.54-.53,37.79-2,9.07-3.66,25.1.3,35.12.3,35.12,1.15,2.58,7.28,3.13c5.65.5,8.45-1.62,8.45-1.62s7.75-31.21,9.9-40.86,8.37-41.39,8.37-41.39L76.9,237s-1.73,8.84,0,22.9,4.76,28.45,4.76,28.45a25.6,25.6,0,0,0,8.68,1.42,14.75,14.75,0,0,0,7.62-2S102.77,246,102.77,230s-.43-56.07-5.44-79.65Z" style="fill:#fff;opacity:0.5"></path><path d="M78.25,180.62l-5,30.64L76.9,237l-1.57-26.09,4.51-25.13c3.84-.93,12.58-5.53,15-12.11C88.9,179.86,78.25,180.62,78.25,180.62Zm-18-17.9c.67-2.58,1.39-5.14,2.19-7.71A37.86,37.86,0,0,0,59,162.32a69.66,69.66,0,0,0-2.31,7.75c-.61,2.63-1.11,5.27-1.46,7.94a53,53,0,0,0-.53,8.06c.64-2.62,1.24-5.22,1.84-7.82s1.17-5.2,1.8-7.79S59.63,165.29,60.3,162.72Zm-3.86-1.94c.86-1.57,1.74-3.14,2.53-4.8a28.78,28.78,0,0,0-3.64,4.09,40.12,40.12,0,0,0-3,4.6,35,35,0,0,0-2.24,5A21.87,21.87,0,0,0,48.88,175l2.45-4.83c.84-1.58,1.66-3.16,2.52-4.72S55.58,162.36,56.44,160.78Zm-3.2,102.29Q51,275.52,49.09,288q2.88-12.33,5.45-24.69c1.73-8.26,3.37-16.49,5-24.79s2.54-16.72,3.35-25.11,1.44-16.8,1.95-25.22c-1.17,8.36-2.21,16.72-3.26,25.07s-2.18,16.7-3.71,24.95S54.71,254.78,53.24,263.07Zm43.56-41.9c.17,3.65.38,7.32.32,10.94s-.29,7.3-.48,11l-.55,11q-.57,11-.87,22,1.29-10.95,2.19-21.92c.6-7.33,1.16-14.62,1.41-22,0-7.42-.65-14.72-1.31-22S96,195.47,94.82,188.21l1.38,22C96.4,213.85,96.63,217.51,96.8,221.17Z" style="fill:#FF725E;opacity:0.5"></path></g><g id="freepik--top--inject-262"><path d="M44.61,168.25c1.65-8.38,3.86-15.59,4-19.62.27-8.44-1.75-14.83-2.46-19.57-1.54-10.32-.41-19.44,2-21.47,0,0,7-1.61,9.29-2,1.81-.33,3.21-.54,5.6-1.12a33.75,33.75,0,0,1,12.33-.79c1.12.11,5,.86,7.06,1.33,1.61.37,5.34,1,5.35,1a54.92,54.92,0,0,1,6.1,9.12c2.62,4.67,4.76,8.08,5.09,17.33.51,14.68,1,27.31,1.55,35.09C89.94,174,58.24,176.2,44.61,168.25Z" style="fill:#37474f"></path><path d="M57.07,65.89c-6,1.24-7.34,10.76-3.91,16.63C58.82,92.23,64.38,93.7,65.1,98.3,71.53,93.75,77.86,89,84.34,84.53c4.27-1.87,9.39-5.84,7.15-11.08a2.63,2.63,0,0,0,4.8-1.75,1.81,1.81,0,0,1-3.32.54c-.74-1.31-.26-3,0-4.48.75-4.06-2.82-8.92-7.11-8.66C77.12,52.56,60.24,54.29,57.07,65.89Z" style="fill:#263238"></path><path d="M60.48,99.17a2.91,2.91,0,0,1,1.09-.73,5.9,5.9,0,0,1,1.63-.15A6.84,6.84,0,0,0,67,96.89,15.84,15.84,0,0,0,69.51,94c.73-.88.68-2.35.61-3.42A14.36,14.36,0,0,0,67,82.11a9.76,9.76,0,0,0-1.91-1.72A17.86,17.86,0,0,0,63,79.28a3.31,3.31,0,0,0-.88-.32,20.07,20.07,0,0,0-2.68-.36,4,4,0,0,1-.48-.07,1.92,1.92,0,0,1-.62-.27,7.42,7.42,0,0,0-1.81-.77A12.37,12.37,0,0,0,51.87,77a7.44,7.44,0,0,0-4.39,1.74,4.2,4.2,0,0,0-1.28,4.35,4.06,4.06,0,0,1,.51,1.72,3.06,3.06,0,0,1-.81,1.44c-1.34,1.78-1.62,4.52-.12,6.17a13,13,0,0,1,1.78,1.78c.64,1,.42,2.37.78,3.52a4.93,4.93,0,0,0,2.15,2.9,5.06,5.06,0,0,0,3.08.77c-1.78-.76-2.24-2.72-1.83-4.6A5.64,5.64,0,0,0,54,100.41c1.23.9,3.59,1.24,4.86.39A12,12,0,0,0,60.48,99.17Z" style="fill:#263238"></path><path d="M63.34,101.31,63,91.83a4.41,4.41,0,0,1-5.44-1c-3.07-3.07-3.42-6.48-1.81-8.7,1.78-2.44,5.81-1.6,7.6,1.32,2.64.58,3.64-3.19,1.58-7,0,0,5.3-3.2,4.19-8.81,4.57,2.76,15.13,3.93,17.57-.82,1.5,2.18,3.55,4.71,3.72,16.58.15,10.85-1.93,13.45-4.86,14.8-1.75.81-3.91,1.05-7.25.81l.19,2.8h0c.08,1.41.25,2.29,1.44,2.55s3,.74,3,.74,3.62,3.52-5.06,4.8c-13,1.91-19.88-4.44-19.88-4.44l3-.68C63.34,104.28,63.45,103,63.34,101.31Z" style="fill:#b16668"></path><path d="M79.4,90.63a2.8,2.8,0,0,0-1.26-1.15,5.41,5.41,0,0,0-1.91-.37c-.09,0-.16.25,0,.27a5.62,5.62,0,0,1,1.74.6,2.94,2.94,0,0,1,1.16,1C79.26,91.31,79.52,90.83,79.4,90.63Z" style="fill:#9a4a4d"></path><path d="M84.78,74.13l3.42,1.62a1.82,1.82,0,0,1-2.46,1A2,2,0,0,1,84.78,74.13Z" style="fill:#263238"></path><path d="M71.69,76.9l3.46-1.66a1.84,1.84,0,0,0-2.5-.94A2,2,0,0,0,71.69,76.9Z" style="fill:#263238"></path><polygon points="79.78 77.76 80.43 87.71 85.51 85.53 79.78 77.76" style="fill:#9a4a4d"></polygon><path d="M84.17,79.89a1.63,1.63,0,0,0,1.48,1.7,1.51,1.51,0,0,0,1.67-1.41,1.61,1.61,0,0,0-1.47-1.7A1.52,1.52,0,0,0,84.17,79.89Z" style="fill:#263238"></path><path d="M73.08,79.89a1.62,1.62,0,0,0,1.47,1.7,1.52,1.52,0,0,0,1.68-1.41,1.62,1.62,0,0,0-1.48-1.7A1.51,1.51,0,0,0,73.08,79.89Z" style="fill:#263238"></path><path d="M78.29,99c-6-.53-11.77-2.41-13.16-5.13a5.41,5.41,0,0,0,2.47,4.38c3.44,2,10.83,2.87,10.83,2.87Z" style="fill:#9a4a4d"></path><g id="freepik--hand--inject-262"><path d="M48.13,107.59c-6.65,1.11-8.88,3.17-11.63,10.37-2.66,7-8.81,22.63-7,33.15,1.11,6.42,17.31-9.7,17.31-9.7l7.76-17.87S53.75,107.59,48.13,107.59Z" style="fill:#9a4a4d"></path><path d="M50,116.41a20.13,20.13,0,0,0,3.65-7.08c.74-3,3.11-5.77,3.92-6.91s2.55-2.81,3.87-4.4,1.72-2,3.63-2.36c2.62-.45,4.68-.86,5.71-.55s1,1,.1,1.9-2.77,1.13-3.35,1.3-1.87.74-1.87.74l-2.42,3.57a35.37,35.37,0,0,1,4.92,1.2c.81.44,1.5,2.53,1.14,3.68A2.23,2.23,0,0,1,70.2,110s.93,1.2.29,2.19A15.91,15.91,0,0,1,68,114.92a6.7,6.7,0,0,1-2.48.54,18,18,0,0,1-3.11,3.61c-1.41,1-2.33,1-3.88,3.16Z" style="fill:#b16668"></path><path d="M65.07,103c1-.42,1.19-1.08,2.11-.73s.57,1.4.57,1.4Z" style="fill:#9a4a4d"></path><path d="M69.26,107.59a9.59,9.59,0,0,0-2-1.29c-.67-.33-2.08-.83-2.08-.83a10.1,10.1,0,0,1,2.86.68,8,8,0,0,1,1.35.68,2.35,2.35,0,0,1-.1.67Z" style="fill:#9a4a4d"></path><path d="M69.39,109a8.14,8.14,0,0,1,.94.47,2.91,2.91,0,0,1-.15.67,8.1,8.1,0,0,0-2.59-1.61A8.46,8.46,0,0,1,69.39,109Z" style="fill:#9a4a4d"></path><path d="M65.19,116a19.85,19.85,0,0,1,2-3.24,1.48,1.48,0,0,1,2-.19c.26.39-1.08.34-1.47.52A12.78,12.78,0,0,0,65.19,116Z" style="fill:#9a4a4d"></path><path d="M62.09,102.52s.75-1.07,2.1-2.76,1.27-1.45,2.58-1.71,3.79-.69,4.46-1.48a4.33,4.33,0,0,1-.37.44c-.87.88-2.77,1.13-3.35,1.3s-1.87.74-1.87.74l-2.49,3.67Z" style="fill:#9a4a4d"></path><path d="M50,116.41c-4.4,5.31-16.26,18.08-19,23.16-1.9,3.51-2.38,11.68-.44,14.65s7.47,1.72,12-2.21c3.87-3.4,7.09-11.57,9.9-17.39s6.18-12.39,6.18-12.39Z" style="fill:#b16668"></path><path d="M50,116.41a27.65,27.65,0,0,0,2.62-4.29,15.39,15.39,0,0,0,.86-2.35,13.52,13.52,0,0,1,.8-2.4A22.81,22.81,0,0,1,57,103.11a33.23,33.23,0,0,1,3.26-3.84c.57-.62,1.1-1.26,1.64-1.91a4.34,4.34,0,0,1,2-1.53,21.39,21.39,0,0,1,2.48-.51c.82-.14,1.65-.28,2.49-.37a7.79,7.79,0,0,1,1.28-.06,2.21,2.21,0,0,1,1.25.4.72.72,0,0,1,.27.66,1.43,1.43,0,0,1-.26.63,3.14,3.14,0,0,1-.94.91,8.05,8.05,0,0,1-2.4.83,13.74,13.74,0,0,0-2.35.84l.06,0-2.44,3.57-.07-.18a45.46,45.46,0,0,1,4.45,1,2.38,2.38,0,0,1,.55.23,1.72,1.72,0,0,1,.43.42,4,4,0,0,1,.53,1,4.09,4.09,0,0,1,.18,2.3l0-.11a2.83,2.83,0,0,1,.93,1.15,1.84,1.84,0,0,1,.16.73,2,2,0,0,1-.15.74V110a2.19,2.19,0,0,1,.39,2.1,9.25,9.25,0,0,1-1.33,1.7c-.25.27-.5.52-.76.77a2.41,2.41,0,0,1-.88.65,8.55,8.55,0,0,1-2.13.35l0,0a23.52,23.52,0,0,1-1.49,2,9.61,9.61,0,0,1-1.77,1.72c-.67.48-1.44.79-2.1,1.28a7.85,7.85,0,0,0-1.68,1.77,7.89,7.89,0,0,1,1.66-1.8c.66-.5,1.43-.82,2.08-1.31A9.71,9.71,0,0,0,64,117.4a23.47,23.47,0,0,0,1.46-2l0,0h0a8.53,8.53,0,0,0,2.09-.34,2.38,2.38,0,0,0,.83-.63c.25-.24.5-.5.74-.76a8.94,8.94,0,0,0,1.3-1.67,2,2,0,0,0-.38-1.93l0,0v0a2,2,0,0,0,.13-.67,1.72,1.72,0,0,0-.15-.67,2.64,2.64,0,0,0-.87-1.06l0,0v-.07a3.89,3.89,0,0,0-.18-2.18c-.26-.68-.62-1.42-1.38-1.56a44.31,44.31,0,0,0-4.43-1l-.18,0,.1-.14L65.54,99l0,0h0A13.11,13.11,0,0,1,68,98.06a7.73,7.73,0,0,0,2.33-.79,2.73,2.73,0,0,0,.86-.83c.24-.32.35-.74,0-1a3.54,3.54,0,0,0-2.34-.3c-.83.09-1.66.23-2.49.37a19.65,19.65,0,0,0-2.45.48A4.24,4.24,0,0,0,62,97.49c-.53.64-1.08,1.28-1.65,1.9a34.79,34.79,0,0,0-3.27,3.81,23.11,23.11,0,0,0-2.69,4.23,13.76,13.76,0,0,0-.83,2.36,15.25,15.25,0,0,1-.89,2.36A27.72,27.72,0,0,1,50,116.41Z" style="fill:#9a4a4d"></path></g></g></g></g><g id="freepik--speech-bubbles--inject-262"><g id="freepik--speech-bubble--inject-262"><g id="freepik--Bubble--inject-262"><path d="M367.27,60.78c-3.36-1.9-8-1.61-13.07,1.33C343.94,68,335.63,82.44,335.63,94.28c0,5.92,2.08,10.07,5.43,12l6.35,3.65c3.36,1.94,8,1.66,13.11-1.3,10.26-5.92,18.57-20.32,18.57-32.17,0-5.9-2.06-10-5.41-12Z" style="fill:#FF725E"></path><path d="M336.31,88.12a30,30,0,0,0-.68,6.16c0,5.92,2.08,10.07,5.43,12l6.35,3.65c3.36,1.94,8,1.66,13.11-1.3a29.87,29.87,0,0,0,5-3.66Z" style="opacity:0.15"></path><path d="M373.66,94.76c3.36-5.82,5.43-12.37,5.43-18.29,0-11.84-8.31-16.64-18.57-10.72S342,86.07,342,97.92s8.32,16.64,18.57,10.72a31.85,31.85,0,0,0,7.25-5.89l7.58,1.39a1.25,1.25,0,0,0,1.39-1.69Z" style="fill:#FF725E"></path><path d="M373.66,94.76c3.36-5.82,5.43-12.37,5.43-18.29,0-11.84-8.31-16.64-18.57-10.72S342,86.07,342,97.92s8.32,16.64,18.57,10.72a31.85,31.85,0,0,0,7.25-5.89l7.58,1.39a1.25,1.25,0,0,0,1.39-1.69Z" style="fill:#fff;opacity:0.35000000000000003"></path></g><g id="freepik--Alert--inject-262"><path d="M362,92.86l-2.44,1.4a.52.52,0,0,1-.85-.46l-1-18.23a1.61,1.61,0,0,1,.75-1.38l4.6-2.67c.45-.25.78,0,.76.47l-1,19.48A1.93,1.93,0,0,1,362,92.86Z" style="fill:#fafafa"></path><path d="M360.79,102.66c-1.55.9-2.48-.26-2.48-1.88A5.87,5.87,0,0,1,360.79,96c1.55-.9,2.48.26,2.48,1.87A5.89,5.89,0,0,1,360.79,102.66Z" style="fill:#fafafa"></path></g></g><g id="freepik--speech-bubble--inject-262"><g id="freepik--bubble--inject-262"><path d="M135.73,61.83c3.36-1.91,8-1.61,13.07,1.33,10.26,5.92,18.57,20.32,18.57,32.16,0,5.92-2.07,10.08-5.43,12L155.6,111c-3.36,1.93-8,1.65-13.12-1.31-10.26-5.92-18.57-20.32-18.57-32.16,0-5.91,2.07-10.06,5.41-12C130.72,64.7,134.31,62.64,135.73,61.83Z" style="fill:#FF725E"></path><path d="M166.69,89.17a30,30,0,0,1,.68,6.15c0,5.92-2.07,10.08-5.43,12L155.6,111c-3.36,1.93-8,1.65-13.12-1.31a29.18,29.18,0,0,1-5-3.66Z" style="opacity:0.15"></path><path d="M129.34,95.81C126,90,123.91,83.44,123.91,77.52c0-11.84,8.31-16.64,18.57-10.72S161.05,87.12,161.05,99s-8.31,16.65-18.57,10.72a32,32,0,0,1-7.25-5.88l-7.58,1.39a1.25,1.25,0,0,1-1.38-1.7Z" style="fill:#FF725E"></path><path d="M129.34,95.81C126,90,123.91,83.44,123.91,77.52c0-11.84,8.31-16.64,18.57-10.72S161.05,87.12,161.05,99s-8.31,16.65-18.57,10.72a32,32,0,0,1-7.25-5.88l-7.58,1.39a1.25,1.25,0,0,1-1.38-1.7Z" style="fill:#fff;opacity:0.35000000000000003"></path></g><g id="freepik--alert--inject-262"><path d="M142.21,103.71c1.55.89,2.49-.27,2.49-1.88a5.89,5.89,0,0,0-2.49-4.75c-1.55-.89-2.48.27-2.48,1.88A5.89,5.89,0,0,0,142.21,103.71Z" style="fill:#fafafa"></path></g><path d="M142.35,73.34a11.45,11.45,0,0,1,2.49,2A14.22,14.22,0,0,1,147,78.19a16.63,16.63,0,0,1,1.52,3.52,13.81,13.81,0,0,1,.57,4,8.84,8.84,0,0,1-.34,2.72,5.65,5.65,0,0,1-.87,1.72,5.93,5.93,0,0,1-1.16,1.14l-1.19.87a4.74,4.74,0,0,0-1,1,2.61,2.61,0,0,0-.51,1.43,1.25,1.25,0,0,1-.25.66.35.35,0,0,1-.49,0L141.23,94a1.4,1.4,0,0,1-.53-.64,1.74,1.74,0,0,1-.21-.92,8.3,8.3,0,0,1,.45-2.62,5.91,5.91,0,0,1,1-1.67,5.6,5.6,0,0,1,1.2-1.1c.43-.28.82-.56,1.19-.84a4.24,4.24,0,0,0,.9-1,2.6,2.6,0,0,0,.35-1.42,6.59,6.59,0,0,0-3.19-5.5Q140,77,138.94,80a1.46,1.46,0,0,1-.29.53q-.15.15-.51-.06l-2.21-1.28a1.16,1.16,0,0,1-.42-.49,1.72,1.72,0,0,1-.18-.78,6.6,6.6,0,0,1,.59-2.66,4.75,4.75,0,0,1,1.5-1.91,4,4,0,0,1,2.21-.76A5,5,0,0,1,142.35,73.34Z" style="fill:#fafafa"></path></g><g id="freepik--speech-bubble--inject-262"><g id="freepik--speech-bubble--inject-262"><path d="M250,26.85a37.09,37.09,0,1,0,37.08,37.09A37.13,37.13,0,0,0,250,26.85Zm0,69.65a32.56,32.56,0,1,1,32.55-32.56A32.6,32.6,0,0,1,250,96.5Z" style="fill:#455a64"></path><path d="M282.55,63.94A32.56,32.56,0,1,1,250,31.38,32.59,32.59,0,0,1,282.55,63.94Z" style="fill:#fff"></path><path d="M248,111.24,243.24,99h13.52L252,111.24A2.16,2.16,0,0,1,248,111.24Z" style="fill:#455a64"></path></g><g id="freepik--Brain--inject-262"><g id="freepik--brain--inject-262"><path d="M246,77a4.93,4.93,0,0,1-4.61-3.21.14.14,0,0,0-.12-.09A4.92,4.92,0,0,1,236,68.46a4.92,4.92,0,0,1-3.35-7.79.27.27,0,0,0,0-.36,4.92,4.92,0,0,1,0-7,4.87,4.87,0,0,1,2.82-1.4,4.93,4.93,0,0,1,5.81-7.73l0-.13A4.84,4.84,0,0,1,246,40.24,4.93,4.93,0,0,1,251,45.16V72.07A4.93,4.93,0,0,1,246,77Zm-4.72-5.24a2.08,2.08,0,0,1,1.93,1.35,3,3,0,0,0,5.78-1V45.16a3,3,0,0,0-3-3,2.88,2.88,0,0,0-2.82,2.3l-.18.88a1.41,1.41,0,0,1-2.18.86,3,3,0,0,0-3.82.33,2.93,2.93,0,0,0-.88,2.11,3,3,0,0,0,.88,2.11,1.79,1.79,0,0,1,.42,1.89,1.82,1.82,0,0,1-1.58,1.2A3,3,0,0,0,234,58.94a2.21,2.21,0,0,1,.21,2.88,3,3,0,0,0,2.38,4.73,1.45,1.45,0,0,1,1.39,1.7,2.93,2.93,0,0,0,.33,2,3,3,0,0,0,2.82,1.51ZM241.14,45Z" style="fill:#FF725E"></path><path d="M243,51.46a4.43,4.43,0,0,1-3.92-2.35.86.86,0,0,1,.35-1.17.87.87,0,0,1,1.18.35A2.69,2.69,0,0,0,243,49.72,2.73,2.73,0,0,0,245.58,48a.87.87,0,1,1,1.63.6A4.47,4.47,0,0,1,243,51.46Z" style="fill:#FF725E"></path><path d="M243.14,69.67a4.45,4.45,0,0,1-2.15-.56.87.87,0,1,1,.84-1.52,2.71,2.71,0,0,0,2.79-.09,2.76,2.76,0,0,0,1.18-2.88.87.87,0,1,1,1.69-.38A4.45,4.45,0,0,1,245.56,69,4.39,4.39,0,0,1,243.14,69.67Z" style="fill:#FF725E"></path><path d="M237.33,64.23a4.4,4.4,0,0,1-1.51-.26,4.45,4.45,0,0,1-2.89-3.54.87.87,0,1,1,1.72-.25,2.7,2.7,0,0,0,1.76,2.16,2.74,2.74,0,0,0,3-.81.86.86,0,0,1,1.22-.11.88.88,0,0,1,.11,1.23A4.48,4.48,0,0,1,237.33,64.23Z" style="fill:#FF725E"></path><path d="M245,60.56h-.12a.87.87,0,0,1-.74-1A2.71,2.71,0,0,0,240,56.9a.87.87,0,0,1-.95-1.46,4.47,4.47,0,0,1,5.09.16,4.42,4.42,0,0,1,1.75,4.22A.86.86,0,0,1,245,60.56Z" style="fill:#FF725E"></path><path d="M254,77A4.93,4.93,0,0,1,249,72.07V45.16A4.92,4.92,0,0,1,254,40.24a4.84,4.84,0,0,1,4.72,3.85l0,.13A4.93,4.93,0,0,1,264.51,52a4.87,4.87,0,0,1,2.82,1.4,4.93,4.93,0,0,1,0,7,.27.27,0,0,0,0,.36A4.92,4.92,0,0,1,264,68.46a4.92,4.92,0,0,1-5.29,5.24c-.05,0-.1,0-.11.09A5,5,0,0,1,254,77Zm0-34.82a3,3,0,0,0-3,3V72.07a3,3,0,0,0,5.78,1,2,2,0,0,1,2.08-1.34,3,3,0,0,0,2.82-1.51,2.94,2.94,0,0,0,.34-2,1.41,1.41,0,0,1,.3-1.17,1.43,1.43,0,0,1,1.08-.53,3,3,0,0,0,2.38-4.73,2.22,2.22,0,0,1,.21-2.88,3,3,0,0,0,0-4.22,3,3,0,0,0-1.85-.86,1.83,1.83,0,0,1-1.58-1.2,1.78,1.78,0,0,1,.43-1.89,3,3,0,0,0-3.83-4.55,1.41,1.41,0,0,1-2.18-.86h0l-.18-.88A2.88,2.88,0,0,0,254,42.18Zm9.95,25.71Z" style="fill:#FF725E"></path><path d="M257,51.46a4.47,4.47,0,0,1-4.18-2.91.88.88,0,0,1,.52-1.12.86.86,0,0,1,1.11.52,2.73,2.73,0,0,0,5,.34.86.86,0,0,1,1.17-.35.87.87,0,0,1,.36,1.17A4.46,4.46,0,0,1,257,51.46Z" style="fill:#FF725E"></path><path d="M256.85,69.67a4.47,4.47,0,0,1-4.35-5.43.87.87,0,1,1,1.7.38,2.71,2.71,0,0,0,4,3,.87.87,0,1,1,.84,1.52A4.45,4.45,0,0,1,256.85,69.67Z" style="fill:#FF725E"></path><path d="M262.66,64.23a4.46,4.46,0,0,1-3.41-1.58.87.87,0,1,1,1.33-1.12,2.71,2.71,0,0,0,4.76-1.35.87.87,0,1,1,1.72.25A4.45,4.45,0,0,1,264.17,64,4.36,4.36,0,0,1,262.66,64.23Z" style="fill:#FF725E"></path><path d="M255,60.56a.86.86,0,0,1-.86-.74,4.42,4.42,0,0,1,1.75-4.22,4.47,4.47,0,0,1,5.09-.16.87.87,0,0,1-1,1.46,2.71,2.71,0,0,0-4.17,2.67.87.87,0,0,1-.73,1Z" style="fill:#FF725E"></path></g><path d="M255.76,80.17H244.23a.87.87,0,0,1,0-1.74h11.53a.87.87,0,1,1,0,1.74Z" style="fill:#FF725E"></path><path d="M250,89.17a6.65,6.65,0,0,1-6.64-6.64.87.87,0,0,1,.87-.87h11.53a.87.87,0,0,1,.87.87A6.65,6.65,0,0,1,250,89.17Zm-4.82-5.77a4.9,4.9,0,0,0,9.64,0Z" style="fill:#FF725E"></path></g></g></g></svg>